<svg width="1171" height="597" viewBox="0 0 1171 597" fill="none" xmlns="http://www.w3.org/2000/svg">
<rect width="1171" height="597" fill="white"/>
<rect x="150.668" y="278.333" width="144" height="144" rx="24" transform="rotate(-16.5503 150.668 278.333)" fill="#FF7866"/>
<path d="M114.385 319.746C112.693 314.055 117.573 308.569 123.422 309.585L155.02 315.074L173.721 378.004L150.248 399.857C145.903 403.903 138.82 401.972 137.128 396.281L114.385 319.746Z" fill="#FF7866"/>
<circle cx="295.391" cy="358.115" r="12" transform="rotate(-16.5503 295.391 358.115)" fill="white"/>
<circle cx="241.096" cy="315.83" r="40" transform="rotate(-16.5503 241.096 315.83)" fill="white"/>
<circle cx="349.494" cy="328.915" r="14.2798" fill="#51E3D4"/>
<circle cx="367.332" cy="280.499" r="21.5234" fill="#51E3D4"/>
<path d="M245.226 313.987C235.546 311.05 225.631 308.041 218.866 296.076C218.206 296.787 217.572 297.533 216.968 298.319C211.934 304.851 209.688 313.108 210.725 321.282C211.23 325.316 212.529 329.209 214.548 332.735C216.567 336.261 219.265 339.351 222.487 341.825C225.709 344.299 229.39 346.109 233.318 347.149C237.245 348.19 241.342 348.441 245.37 347.888C250.33 347.208 255.057 345.347 259.153 342.462C263.25 339.576 266.596 335.75 268.91 331.306C263.701 319.604 254.572 316.847 245.226 313.987Z" fill="#51E3D4"/>
<path d="M466.268 313.793C464.698 310.9 462.424 308.709 459.448 307.221C456.555 305.651 453.124 304.865 449.156 304.865C442.295 304.865 436.798 307.139 432.664 311.685C428.531 316.149 426.464 322.143 426.464 329.665C426.464 337.684 428.614 343.967 432.912 348.513C437.294 352.977 443.287 355.209 450.892 355.209C456.1 355.209 460.482 353.887 464.036 351.241C467.674 348.596 470.319 344.793 471.972 339.833H452.876C448.562 339.833 445.064 336.336 445.064 332.021C445.064 327.707 448.562 324.209 452.876 324.209H491.192V343.925C489.622 349.216 486.935 354.135 483.132 358.681C479.412 363.228 474.659 366.907 468.872 369.717C463.086 372.528 456.555 373.933 449.28 373.933C440.683 373.933 432.995 372.073 426.216 368.353C419.52 364.551 414.271 359.301 410.468 352.605C406.748 345.909 404.888 338.263 404.888 329.665C404.888 321.068 406.748 313.421 410.468 306.725C414.271 299.947 419.52 294.697 426.216 290.977C432.912 287.175 440.559 285.273 449.156 285.273C459.572 285.273 468.335 287.795 475.444 292.837C482.636 297.88 487.39 304.865 489.704 313.793H466.268Z" fill="#1CB0A1"/>
<path d="M513.539 281.553C519.395 281.553 524.141 286.3 524.141 292.155V373.313H502.937V292.155C502.937 286.3 507.684 281.553 513.539 281.553Z" fill="#1CB0A1"/>
<path d="M597.23 304.121C603.085 304.121 607.832 308.868 607.832 314.723V373.313H586.628V363.889C584.478 366.948 581.544 369.428 577.824 371.329C574.186 373.148 570.136 374.057 565.672 374.057C560.381 374.057 555.71 372.9 551.66 370.585C547.609 368.188 544.468 364.757 542.236 360.293C540.004 355.829 538.888 350.58 538.888 344.545V315.04C538.888 309.073 543.836 304.296 549.799 304.507C555.472 304.707 559.968 309.364 559.968 315.04V341.693C559.968 346.323 561.166 349.919 563.564 352.481C565.961 355.044 569.185 356.325 573.236 356.325C577.369 356.325 580.634 355.044 583.032 352.481C585.429 349.919 586.628 346.323 586.628 341.693V314.723C586.628 308.868 591.374 304.121 597.23 304.121Z" fill="#1CB0A1"/>
<path d="M644.266 313.917C646.25 310.693 649.102 308.089 652.822 306.105C656.542 304.121 660.8 303.129 665.594 303.129C671.298 303.129 676.465 304.576 681.094 307.469C685.724 310.363 689.361 314.496 692.006 319.869C694.734 325.243 696.098 331.484 696.098 338.593C696.098 345.703 694.734 351.985 692.006 357.441C689.361 362.815 685.724 366.989 681.094 369.965C676.465 372.859 671.298 374.305 665.594 374.305C660.717 374.305 656.46 373.355 652.822 371.453C649.185 369.469 646.333 366.865 644.266 363.641V373.313H623.062V292.155C623.062 286.3 627.809 281.553 633.664 281.553C639.52 281.553 644.266 286.3 644.266 292.155V313.917ZM674.522 338.593C674.522 333.303 673.034 329.169 670.058 326.193C667.165 323.135 663.569 321.605 659.27 321.605C655.054 321.605 651.458 323.135 648.482 326.193C645.589 329.252 644.142 333.427 644.142 338.717C644.142 344.008 645.589 348.183 648.482 351.241C651.458 354.3 655.054 355.829 659.27 355.829C663.486 355.829 667.082 354.3 670.058 351.241C673.034 348.1 674.522 343.884 674.522 338.593Z" fill="#1CB0A1"/>
<path d="M761.16 304.121C768.598 304.121 773.621 311.717 770.71 318.562L733.451 406.173H710.635L726.507 370.957L704.645 319.047C701.661 311.96 706.864 304.121 714.555 304.121C719.055 304.121 723.079 306.924 724.64 311.146L738.039 347.397L751.416 310.926C752.915 306.839 756.806 304.121 761.16 304.121Z" fill="#1CB0A1"/>
</svg>
